<mxfile host="app.diagrams.net" modified="2021-10-11T00:38:38.343Z" agent="5.0 (Macintosh; Intel Mac OS X 10_13_6) AppleWebKit/537.36 (KHTML, like Gecko) Chrome/94.0.4606.61 Safari/537.36" etag="ZeQwzqh5ybBAOhk4DndE" version="15.3.7" type="github">
  <diagram name="Page-1" id="52a04d89-c75d-2922-d76d-85b35f80e030">
    <mxGraphModel dx="1186" dy="614" grid="1" gridSize="10" guides="1" tooltips="1" connect="1" arrows="1" fold="1" page="1" pageScale="1" pageWidth="1100" pageHeight="850" background="none" math="0" shadow="0">
      <root>
        <mxCell id="0" />
        <mxCell id="1" parent="0" />
        <mxCell id="MsJNrBAZX4rdSZ-EI3os-1" value="&lt;b&gt;&lt;font style=&quot;font-size: 24px&quot;&gt;E911 edit page&lt;/font&gt;&lt;/b&gt;" style="rounded=1;whiteSpace=wrap;html=1;" vertex="1" parent="1">
          <mxGeometry x="444" y="120" width="212" height="60" as="geometry" />
        </mxCell>
        <mxCell id="MsJNrBAZX4rdSZ-EI3os-2" value="" style="endArrow=classic;html=1;exitX=1;exitY=0.5;exitDx=0;exitDy=0;entryX=0;entryY=0.5;entryDx=0;entryDy=0;" edge="1" parent="1" source="MsJNrBAZX4rdSZ-EI3os-1" target="MsJNrBAZX4rdSZ-EI3os-7">
          <mxGeometry relative="1" as="geometry">
            <mxPoint x="500" y="390" as="sourcePoint" />
            <mxPoint x="890" y="150" as="targetPoint" />
          </mxGeometry>
        </mxCell>
        <mxCell id="MsJNrBAZX4rdSZ-EI3os-3" value="&lt;font style=&quot;font-size: 14px&quot;&gt;User has one digital line&lt;/font&gt;" style="edgeLabel;resizable=0;html=1;align=center;verticalAlign=middle;" connectable="0" vertex="1" parent="MsJNrBAZX4rdSZ-EI3os-2">
          <mxGeometry relative="1" as="geometry" />
        </mxCell>
        <mxCell id="MsJNrBAZX4rdSZ-EI3os-4" value="" style="endArrow=classic;html=1;exitX=0;exitY=0.5;exitDx=0;exitDy=0;" edge="1" parent="1" source="MsJNrBAZX4rdSZ-EI3os-1">
          <mxGeometry relative="1" as="geometry">
            <mxPoint x="400" y="200" as="sourcePoint" />
            <mxPoint x="220" y="150" as="targetPoint" />
          </mxGeometry>
        </mxCell>
        <mxCell id="MsJNrBAZX4rdSZ-EI3os-5" value="&lt;font style=&quot;font-size: 14px&quot;&gt;User has multiple digital lines&lt;/font&gt;" style="edgeLabel;resizable=0;html=1;align=center;verticalAlign=middle;" connectable="0" vertex="1" parent="MsJNrBAZX4rdSZ-EI3os-4">
          <mxGeometry relative="1" as="geometry" />
        </mxCell>
        <mxCell id="MsJNrBAZX4rdSZ-EI3os-7" value="Does the digital&lt;br&gt;line have&lt;br&gt;an emergency&lt;br&gt;address?" style="rhombus;whiteSpace=wrap;html=1;" vertex="1" parent="1">
          <mxGeometry x="870" y="80" width="140" height="140" as="geometry" />
        </mxCell>
      </root>
    </mxGraphModel>
  </diagram>
</mxfile>
